<svg viewBox="0 0 512 512" xmlns="http://www.w3.org/2000/svg"><path d="M256 512c-68.38 0-132.667-26.629-181.02-74.98C26.629 388.667 0 324.38 0 256S26.629 123.333 74.98 74.98C123.333 26.629 187.62 0 256 0s132.667 26.629 181.02 74.98C485.371 123.333 512 187.62 512 256s-26.629 132.667-74.98 181.02C388.667 485.371 324.38 512 256 512zm0-482c-60.367 0-117.12 23.508-159.806 66.194S30 195.633 30 256s23.508 117.12 66.194 159.806S195.633 482 256 482s117.12-23.508 159.806-66.194S482 316.367 482 256s-23.508-117.12-66.194-159.806S316.367 30 256 30z"/><path d="M241 60.036h30v40.032h-30zm114.603 75.123l28.302-28.303 21.21 21.21-28.302 28.303zM411.932 241h40.032v30h-40.032zm-56.356 135.868l21.21-21.21 28.303 28.302-21.21 21.21zM241 411.932h30v40.032h-30zm-134.225-27.998l28.302-28.303 21.21 21.21-28.302 28.303zM60.036 241h40.032v30H60.036zm46.765-112.96l21.21-21.21 28.303 28.302-21.21 21.21zM361.892 271H241V150.108h30V241h90.892z"/></svg>